<svg width="159" height="117" viewBox="0 0 159 117" fill="none" xmlns="http://www.w3.org/2000/svg">
<path d="M70.0882 15.1281C108.797 6.77338 144.178 18.5406 149.114 41.4113C149.253 42.0523 149.364 42.6958 149.452 43.3403C151.381 53.0795 152.802 66.4264 153.016 70.2848C147.159 100.668 101.767 117.141 62.232 116.409C30.6039 115.824 16.8398 101.034 13.9112 93.7131L9.67857 74.3659C9.38417 73.4844 9.13667 72.5846 8.93857 71.6668C4.00219 48.7961 31.3797 23.4829 70.0882 15.1281Z" fill="#C4A9FF"/>
<mask id="mask0_153_1052" style="mask-type:alpha" maskUnits="userSpaceOnUse" x="8" y="12" width="146" height="105">
<path d="M70.0883 15.1279C108.797 6.77319 144.178 18.541 149.114 41.4117C149.252 42.0507 149.363 42.6919 149.451 43.3343C151.381 53.0738 152.802 66.4251 153.016 70.2845C147.159 100.668 101.767 117.142 62.2315 116.41C30.6035 115.824 16.8392 101.035 13.9107 93.7135L9.67801 74.3642C9.38385 73.4832 9.13598 72.5838 8.93801 71.6666C4.00193 48.7959 31.38 23.4826 70.0883 15.1279Z" fill="#FEE142"/>
</mask>
<g mask="url(#mask0_153_1052)">
<path d="M62.9632 100.302L66.6239 116.409C37.9243 125.781 18.059 112.505 11.7139 104.695L8.05322 72.4812L62.9632 100.302Z" fill="#874FFE"/>
<path d="M120.802 84.9275L126.659 101.767L177.176 84.9275L157.774 21.2319L109.454 3.29462L120.802 84.9275Z" fill="#AD87FF"/>
</g>
<ellipse cx="79.026" cy="56.5389" rx="71.7019" ry="42.3648" transform="rotate(-12.1798 79.026 56.5389)" fill="#C4A9FF"/>
<mask id="mask1_153_1052" style="mask-type:alpha" maskUnits="userSpaceOnUse" x="8" y="12" width="142" height="89">
<ellipse cx="79.026" cy="56.5388" rx="71.7019" ry="42.3648" transform="rotate(-12.1798 79.026 56.5388)" fill="#FFD042"/>
</mask>
<g mask="url(#mask1_153_1052)">
<path d="M96.2757 24.5264V7.68735C72.2373 10.8599 23.5016 17.2783 20.8659 17.5711C17.5713 17.9372 2.56259 43.1958 0.732258 46.1244C-0.732009 48.4672 -8.41941 77.6061 -12.0801 91.8827C8.29764 100.18 49.2727 117.141 50.1513 118.606C51.0298 120.07 99.3262 101.4 123.365 91.8827L96.2757 24.5264Z" fill="#AD87FF"/>
</g>
<g filter="url(#filter0_i_153_1052)">
<ellipse cx="80.4576" cy="55.2355" rx="55.9968" ry="31.6883" transform="rotate(-12.1798 80.4576 55.2355)" fill="#874FFE"/>
</g>
<g filter="url(#filter1_dddddd_153_1052)">
<path d="M76.6959 49.1451C81.446 50.0247 80.029 53.4647 77.8922 56.2007C75.4842 59.2839 72.0089 62.059 68.8993 65.0081L61.8238 71.6655L59.679 73.6629C59.353 73.9641 58.9098 74.3919 58.5623 74.6779C59.1351 74.6556 59.7146 74.6652 60.2884 74.6581C61.7773 74.6384 63.2626 74.6255 64.7447 74.6192C66.1495 74.6078 67.5088 74.6125 68.9779 74.4117C71.2628 74.0994 73.7063 73.3138 75.4366 72.1558C76.5252 71.4272 77.2803 70.6988 78.1529 69.9073L80.6796 67.6226L82.3545 66.1111C82.7442 65.7611 83.1633 65.4081 83.4971 65.0465C83.7722 64.7484 84.0326 64.4215 84.0665 64.1196C84.0902 63.9077 83.9769 63.708 83.7243 63.5952C83.1529 63.34 80.1052 63.3223 79.1324 63.3114C78.6576 63.3058 77.5712 63.3569 77.2547 63.2135C77.2271 63.1536 77.3326 63.0274 77.4021 62.9617C77.9537 62.4408 78.5157 61.92 79.0636 61.3985C79.2954 61.1779 79.5508 61.1799 79.8913 61.1769C81.6566 61.1618 83.4198 61.1531 85.1859 61.1369L102.383 60.9908C102.856 60.9854 106.029 60.9017 106.098 61.0669C105.929 61.3493 104.941 62.2147 104.6 62.5407L99.9169 66.9586C99.4202 67.3917 98.7432 68.0351 98.2914 68.4772C97.3496 69.3989 96.3266 70.3123 95.3724 71.2202C93.3932 73.12 91.4512 75.0452 87.7932 76.0371C84.7907 76.8512 82.4695 76.9152 79.6389 76.9379L44.3024 77.237C42.7327 77.2507 41.1482 77.338 39.7746 77.0736C35.9882 76.3439 39.417 73.569 41.2788 71.8824L52.1764 61.8975C55.2318 59.0805 58.3116 56.2658 61.3816 53.4519L63.9572 51.1042C64.4143 50.6867 64.8717 50.2569 65.3455 49.844C65.4557 49.7556 65.5149 49.6913 65.6961 49.6563C69.3303 48.9535 73.731 48.4834 76.6959 49.1451Z" fill="#A4A4A4"/>
<path d="M114.354 44.5976C111.457 44.6329 108.564 44.6591 105.675 44.6765L86.4084 44.8382C85.3824 44.8469 84.1981 44.8355 83.1597 44.8952C82.2887 44.968 81.5361 45.1049 80.7254 45.4648C80.4238 45.5987 79.7868 46.1332 79.6935 46.1427C76.5233 46.4635 73.6015 46.738 70.3777 47.6316C69.5646 47.8599 68.7705 48.1331 68.0092 48.4465C67.6626 48.5888 66.9237 48.9983 66.6971 49.0216C66.5232 49.0071 66.3403 48.9438 66.4722 48.8076C66.9274 48.3399 67.5095 47.88 67.9831 47.4185C69.618 45.825 71.4949 44.2882 74.3969 43.3551C76.8827 42.5557 78.8576 42.5482 81.2082 42.5346L115.062 42.2523C117.443 42.2342 121.745 42.0563 122.522 43.4529C123.059 44.5142 121.676 45.7509 120.61 46.8309C119.23 48.2284 117.635 49.1377 115.204 49.9194C112.537 50.7775 109.901 50.793 107.341 50.8377C105.293 50.8638 103.249 50.8831 101.208 50.8957L99.0628 50.9164C98.6868 50.92 97.5332 50.9623 97.3329 50.8373C97.2762 50.6543 97.902 50.3595 98.1661 50.234C100.4 49.1727 103.342 48.1467 105.891 47.6269C105.891 47.6269 105.45 47.5273 105.394 47.5116C105.494 47.4305 105.634 47.3119 105.739 47.2368C106.558 47.0132 107.381 46.7988 108.206 46.5936C108.491 46.5221 109.298 46.3301 109.549 46.2486C109.627 46.2386 110.14 46.1229 110.25 46.099C109.907 46.1326 109.633 46.1304 109.303 46.1336C108.976 46.1394 108.032 46.192 107.918 46.0415C107.943 45.9755 108.048 45.8783 108.14 45.8222C108.461 45.6263 113.666 44.8328 114.425 44.722C114.75 44.6654 115.105 44.6406 115.42 44.5728C115.033 44.5892 114.73 44.6007 114.354 44.5976Z" fill="#A4A4A4"/>
<path d="M88.8947 45.3258C88.9838 45.354 88.9849 45.3774 88.9779 45.4376C88.7049 45.7019 87.8932 45.8014 87.4539 45.8914C85.6174 46.2674 81.9702 47.1125 81.0669 46.1272C80.9921 45.9286 80.9373 45.5968 81.3485 45.4045C81.6631 45.3552 82.3016 45.3575 82.6223 45.353L84.4933 45.3277C85.3389 45.3165 88.2809 45.2194 88.8947 45.3258Z" fill="#A4A4A4"/>
<path d="M76.5446 49.2977C78.828 49.7205 79.6292 50.7536 79.6026 52.024C79.5757 53.3029 78.7072 54.8197 77.6471 56.177C75.2519 59.2439 71.8083 61.99 68.6766 64.9601L61.6016 71.6168L59.4574 73.6138C59.1236 73.9222 58.6929 74.3388 58.3542 74.6175L58.0678 74.8525L58.4942 74.836C59.0605 74.814 59.6166 74.8245 60.2088 74.8171L60.2096 74.8165C61.697 74.7967 63.1812 74.784 64.6619 74.7777L64.6628 74.7779C66.0579 74.7666 67.4499 74.7716 68.9562 74.5658C71.2996 74.2455 73.8221 73.4381 75.6189 72.2355C76.7325 71.4902 77.5067 70.7429 78.3714 69.9587L80.8974 67.6745L82.572 66.164C82.9526 65.8222 83.3876 65.4553 83.7314 65.0827C84.0095 64.7813 84.3018 64.4216 84.3402 64.0798C84.3677 63.8335 84.237 63.5963 83.9298 63.4589C83.748 63.3778 83.4054 63.3258 83.0264 63.2883C82.6346 63.2495 82.1611 63.222 81.6802 63.2031C81.1994 63.1841 80.7059 63.1731 80.2723 63.1659L79.2216 63.1527C79.097 63.1513 78.9337 63.1533 78.764 63.155C78.5909 63.1568 78.4051 63.1581 78.2257 63.1553C78.0458 63.1524 77.878 63.1455 77.7393 63.1315C77.6571 63.1233 77.5945 63.1115 77.5461 63.1007C77.5683 63.0679 77.5998 63.0329 77.6238 63.0101C78.1721 62.4924 78.7393 61.9674 79.2867 61.4463C79.3607 61.376 79.4087 61.3632 79.4482 61.3552C79.5253 61.3396 79.622 61.3371 79.8095 61.3355L85.1047 61.2954L102.301 61.1491L102.302 61.1494C102.549 61.1466 103.448 61.1245 104.307 61.1235C104.736 61.123 105.145 61.1282 105.45 61.143C105.58 61.1493 105.684 61.1576 105.76 61.1666C105.722 61.212 105.671 61.2667 105.61 61.33C105.492 61.4519 105.346 61.5942 105.192 61.7393L104.376 62.4936L99.695 66.9104C99.1933 67.3485 98.5165 67.991 98.066 68.4318C97.1231 69.3546 96.1145 70.2544 95.1494 71.1727L95.1486 71.1734C93.1541 73.088 91.2745 74.9401 87.7488 75.8962C84.8155 76.6916 82.5484 76.7564 79.7211 76.7791L79.7202 76.7789L44.3843 77.0784L44.3833 77.0782C42.7852 77.0922 41.2586 77.1769 39.9286 76.9209C39.0275 76.7472 38.5803 76.458 38.4171 76.1091C38.2524 75.7568 38.367 75.3242 38.6638 74.8449C39.2626 73.8779 40.5516 72.7907 41.4972 71.9341L41.4979 71.9334L52.3961 61.9485L52.3968 61.9479L56.9933 57.7243C58.5287 56.317 60.0658 54.9098 61.601 53.5027L64.1761 51.1558L64.1769 51.1551L64.8645 50.5233C65.0939 50.3132 65.325 50.1042 65.5603 49.8992L65.5601 49.8983C65.5714 49.8891 65.5826 49.8806 65.592 49.8729C65.6047 49.8624 65.6156 49.8539 65.6253 49.8461C65.6449 49.8305 65.6563 49.8227 65.6637 49.8181C65.669 49.8148 65.6714 49.8139 65.6723 49.8135C65.6737 49.813 65.682 49.8099 65.7025 49.8059C69.2052 49.1285 73.3736 48.6796 76.2586 49.2387L76.5343 49.2961L76.5446 49.2977ZM119.274 42.4796C120.728 42.606 121.903 42.902 122.259 43.5406C122.504 44.0302 122.312 44.5639 121.917 45.1175C121.517 45.6779 120.924 46.24 120.381 46.7889C119.039 48.1482 117.501 49.0249 115.135 49.7856C112.878 50.5117 110.638 50.6168 108.385 50.6618L107.419 50.679C105.373 50.705 103.33 50.7241 101.29 50.7367L101.289 50.7372L99.1439 50.7575C98.9419 50.7595 98.5776 50.771 98.2227 50.7665C98.047 50.7643 97.8838 50.7582 97.7567 50.7461C97.7039 50.741 97.662 50.7337 97.6281 50.7275L97.6303 50.7255C97.6627 50.6928 97.7196 50.6506 97.7994 50.6015C97.9594 50.503 98.16 50.4078 98.2956 50.3434C100.499 49.2967 103.401 48.2855 105.903 47.7753L106.677 47.6175L106.053 47.4761L106.048 47.475C106.045 47.4742 106.04 47.4736 106.033 47.4722C106.021 47.4695 106.005 47.465 105.984 47.4603C105.942 47.4507 105.885 47.4381 105.826 47.4247C105.816 47.4224 105.806 47.4197 105.796 47.4174C105.824 47.3946 105.851 47.3727 105.877 47.3526C106.662 47.1391 107.45 46.9333 108.24 46.7369L108.241 46.7371C108.31 46.7197 108.412 46.6945 108.532 46.665C108.652 46.6357 108.79 46.6022 108.925 46.5684C109.167 46.5078 109.428 46.4396 109.582 46.3921C109.617 46.3857 109.656 46.3793 109.689 46.3724C109.753 46.3593 109.83 46.343 109.907 46.3263C110.068 46.2911 110.21 46.2591 110.269 46.2463L110.291 45.9426C109.974 45.9737 109.723 45.9715 109.384 45.9748L109.38 45.9748C109.198 45.978 108.905 45.9925 108.623 45.9877C108.484 45.9854 108.364 45.9784 108.277 45.9656C108.265 45.9639 108.257 45.9601 108.247 45.9585C108.264 45.9439 108.279 45.9311 108.293 45.9215C108.298 45.9199 108.304 45.9181 108.312 45.9159C108.353 45.9036 108.415 45.8881 108.497 45.8688C108.662 45.8306 108.887 45.7842 109.157 45.7329C109.695 45.6305 110.394 45.5104 111.111 45.3923C111.827 45.2743 112.558 45.1591 113.156 45.0663L114.409 44.8756L114.422 44.8731C114.57 44.8473 114.725 44.829 114.901 44.8063C115.07 44.7846 115.256 44.7592 115.437 44.7202L115.485 44.4146C115.101 44.431 114.806 44.4419 114.443 44.439L114.434 44.4393C111.537 44.4745 108.645 44.5007 105.758 44.5181L105.757 44.5179L86.4899 44.6792C85.4763 44.6878 84.2721 44.6765 83.219 44.737L83.2068 44.7382C82.4175 44.8042 81.6935 44.9237 80.9342 45.2148L80.6067 45.3504C80.4938 45.4005 80.3725 45.476 80.2683 45.5454C80.1583 45.6189 80.043 45.7024 79.9387 45.7782C79.8315 45.8561 79.7386 45.9238 79.6656 45.9741C79.6536 45.9824 79.6414 45.9895 79.6319 45.9958C76.5079 46.3116 73.5696 46.5937 70.3298 47.4917L70.3281 47.4921C69.4959 47.7258 68.683 48.0056 67.9037 48.3264C67.7133 48.4046 67.4137 48.5559 67.1769 48.6696C67.0503 48.7304 66.936 48.7834 66.8428 48.8218C66.8078 48.8363 66.7784 48.8467 66.7558 48.8547C66.7508 48.8536 66.7447 48.8537 66.7401 48.8526C66.7248 48.8487 66.716 48.8434 66.7093 48.8402C66.9277 48.6165 67.1781 48.3933 67.4368 48.1649C67.6962 47.9357 67.966 47.7001 68.2085 47.4638C69.838 45.8756 71.666 44.3893 74.4653 43.4891C76.8649 42.7175 78.7677 42.7067 81.1253 42.6931L81.1263 42.6933L114.981 42.4109L114.98 42.41C116.185 42.4009 117.827 42.3538 119.274 42.4796ZM88.6292 45.4644C88.5439 45.5025 88.4212 45.5443 88.2497 45.5849C88.1174 45.6162 87.977 45.6436 87.837 45.6693C87.703 45.6939 87.5579 45.7189 87.4412 45.7428C86.509 45.9336 85.1702 46.2319 83.9466 46.3637C82.7233 46.4955 81.732 46.4479 81.3329 46.0358C81.3001 45.9441 81.2753 45.8353 81.2973 45.7331C81.3155 45.6484 81.3595 45.5891 81.4212 45.5468C81.5445 45.534 81.7166 45.5253 81.9092 45.5204C82.1454 45.5143 82.3754 45.5142 82.5435 45.5118L84.4141 45.4858C84.6281 45.4829 84.9738 45.4749 85.3762 45.466C85.7802 45.457 86.2447 45.4472 86.7015 45.441C87.159 45.4348 87.6061 45.4328 87.9755 45.4384C88.2604 45.4427 88.4839 45.4511 88.6292 45.4644Z" stroke="#A4A4A4" stroke-width="0.447683"/>
</g>
<g filter="url(#filter2_dddddddd_153_1052)">
<path d="M76.6959 46.3105C81.446 47.1901 80.029 50.63 77.8922 53.366C75.4842 56.4493 72.0089 59.2244 68.8993 62.1735L61.8238 68.8308L59.679 70.8283C59.353 71.1295 58.9098 71.5573 58.5623 71.8432C59.1351 71.821 59.7146 71.8306 60.2884 71.8235C61.7773 71.8037 63.2626 71.7908 64.7447 71.7846C66.1495 71.7732 67.5088 71.7779 68.9779 71.5771C71.2628 71.2648 73.7063 70.4792 75.4366 69.3211C76.5252 68.5926 77.2803 67.8642 78.1529 67.0727L80.6796 64.788L82.3545 63.2765C82.7442 62.9265 83.1633 62.5735 83.4971 62.2119C83.7722 61.9138 84.0326 61.5869 84.0665 61.2849C84.0902 61.073 83.9769 60.8734 83.7243 60.7606C83.1529 60.5053 80.1052 60.4877 79.1324 60.4768C78.6576 60.4712 77.5712 60.5223 77.2547 60.3789C77.2271 60.3189 77.3326 60.1928 77.4021 60.1271C77.9537 59.6062 78.5157 59.0854 79.0636 58.5639C79.2954 58.3433 79.5508 58.3453 79.8913 58.3423C81.6566 58.3272 83.4198 58.3185 85.1859 58.3023L102.383 58.1562C102.856 58.1508 106.029 58.0671 106.098 58.2323C105.929 58.5147 104.941 59.3801 104.6 59.706L99.9169 64.1239C99.4202 64.5571 98.7432 65.2004 98.2914 65.6425C97.3496 66.5642 96.3266 67.4777 95.3724 68.3855C93.3932 70.2854 91.4512 72.2106 87.7932 73.2025C84.7907 74.0166 82.4695 74.0805 79.6389 74.1033L44.3024 74.4023C42.7327 74.4161 41.1482 74.5034 39.7746 74.239C35.9882 73.5093 39.417 70.7344 41.2788 69.0478L52.1764 59.0628C55.2318 56.2459 58.3116 53.4312 61.3816 50.6173L63.9572 48.2696C64.4143 47.852 64.8717 47.4223 65.3455 47.0093C65.4557 46.9209 65.5149 46.8567 65.6961 46.8216C69.3303 46.1189 73.731 45.6487 76.6959 46.3105Z" fill="#A4A4A4"/>
<path d="M114.354 41.763C111.457 41.7982 108.564 41.8245 105.675 41.8419L86.4084 42.0036C85.3824 42.0122 84.1981 42.0009 83.1597 42.0606C82.2887 42.1334 81.5361 42.2703 80.7254 42.6302C80.4238 42.7641 79.7868 43.2986 79.6935 43.308C76.5233 43.6289 73.6015 43.9034 70.3777 44.7969C69.5646 45.0252 68.7705 45.2985 68.0092 45.6119C67.6626 45.7542 66.9237 46.1637 66.6971 46.187C66.5232 46.1725 66.3403 46.1092 66.4722 45.9729C66.9274 45.5052 67.5095 45.0454 67.9831 44.5838C69.618 42.9904 71.4949 41.4536 74.3969 40.5204C76.8827 39.7211 78.8576 39.7136 81.2082 39.6999L115.062 39.4177C117.443 39.3996 121.745 39.2217 122.522 40.6182C123.059 41.6796 121.676 42.9163 120.61 43.9963C119.23 45.3938 117.635 46.303 115.204 47.0848C112.537 47.9429 109.901 47.9584 107.341 48.003C105.293 48.0291 103.249 48.0485 101.208 48.0611L99.0628 48.0818C98.6868 48.0854 97.5332 48.1277 97.3329 48.0027C97.2762 47.8197 97.902 47.5248 98.1661 47.3994C100.4 46.3381 103.342 45.3121 105.891 44.7923C105.891 44.7923 105.45 44.6927 105.394 44.677C105.494 44.5959 105.634 44.4773 105.739 44.4022C106.558 44.1786 107.381 43.9641 108.206 43.7589C108.491 43.6875 109.298 43.4955 109.549 43.414C109.627 43.4039 110.14 43.2883 110.25 43.2644C109.907 43.298 109.633 43.2957 109.303 43.299C108.976 43.3048 108.032 43.3574 107.918 43.2069C107.943 43.1408 108.048 43.0437 108.14 42.9876C108.461 42.7916 113.666 41.9982 114.425 41.8873C114.75 41.8308 115.105 41.806 115.42 41.7382C115.033 41.7546 114.73 41.7661 114.354 41.763Z" fill="#A4A4A4"/>
<path d="M88.8947 42.4912C88.9838 42.5194 88.9849 42.5427 88.9779 42.603C88.7049 42.8673 87.8932 42.9668 87.4539 43.0567C85.6174 43.4328 81.9702 44.2778 81.0669 43.2926C80.9921 43.0939 80.9373 42.7622 81.3485 42.5698C81.6631 42.5206 82.3016 42.5229 82.6223 42.5183L84.4933 42.4931C85.3389 42.4819 88.2809 42.3848 88.8947 42.4912Z" fill="#A4A4A4"/>
<path d="M76.5446 46.4631C78.828 46.8859 79.6292 47.919 79.6026 49.1894C79.5757 50.4683 78.7072 51.985 77.6471 53.3424C75.2519 56.4093 71.8083 59.1554 68.6766 62.1255L61.6016 68.7822L59.4574 70.7791C59.1236 71.0876 58.6929 71.5042 58.3542 71.7829L58.0678 72.0179L58.4942 72.0014C59.0605 71.9794 59.6166 71.9899 60.2088 71.9825L60.2096 71.9818C61.697 71.9621 63.1812 71.9493 64.6619 71.9431L64.6628 71.9433C66.0579 71.932 67.4499 71.937 68.9562 71.7312C71.2996 71.4109 73.8221 70.6034 75.6189 69.4009C76.7325 68.6555 77.5067 67.9083 78.3714 67.1241L80.8974 64.8398L82.572 63.3294C82.9526 62.9876 83.3876 62.6206 83.7314 62.2481C84.0095 61.9466 84.3018 61.587 84.3402 61.2451C84.3677 60.9989 84.237 60.7616 83.9298 60.6243C83.748 60.5431 83.4054 60.4912 83.0264 60.4537C82.6346 60.4149 82.1611 60.3874 81.6802 60.3684C81.1994 60.3495 80.7059 60.3385 80.2723 60.3312L79.2216 60.3181C79.097 60.3166 78.9337 60.3187 78.764 60.3204C78.5909 60.3222 78.4051 60.3235 78.2257 60.3206C78.0458 60.3178 77.878 60.3109 77.7393 60.2969C77.6571 60.2887 77.5945 60.2769 77.5461 60.2661C77.5683 60.2333 77.5998 60.1982 77.6238 60.1755C78.1721 59.6577 78.7393 59.1327 79.2867 58.6117C79.3607 58.5414 79.4087 58.5286 79.4482 58.5206C79.5253 58.5049 79.622 58.5025 79.8095 58.5009L85.1047 58.4608L102.301 58.3145L102.302 58.3147C102.549 58.3119 103.448 58.2898 104.307 58.2889C104.736 58.2884 105.145 58.2936 105.45 58.3084C105.58 58.3147 105.684 58.3229 105.76 58.332C105.722 58.3774 105.671 58.4321 105.61 58.4954C105.492 58.6173 105.346 58.7596 105.192 58.9047L104.376 59.659L99.695 64.0758C99.1933 64.5139 98.5165 65.1564 98.066 65.5972C97.1231 66.52 96.1145 67.4198 95.1494 68.3381L95.1486 68.3387C93.1541 70.2534 91.2745 72.1055 87.7488 73.0616C84.8155 73.857 82.5484 73.9218 79.7211 73.9445L79.7202 73.9443L44.3843 74.2438L44.3833 74.2436C42.7852 74.2576 41.2586 74.3423 39.9286 74.0863C39.0275 73.9126 38.5803 73.6234 38.4171 73.2745C38.2524 72.9221 38.367 72.4896 38.6638 72.0103C39.2626 71.0433 40.5516 69.9561 41.4972 69.0994L41.4979 69.0988L52.3961 59.1139L52.3968 59.1132L56.9933 54.8897C58.5287 53.4823 60.0658 52.0751 61.601 50.6681L64.1761 48.3212L64.1769 48.3205L64.8645 47.6886C65.0939 47.4785 65.325 47.2696 65.5603 47.0646L65.5601 47.0637C65.5714 47.0545 65.5826 47.0459 65.592 47.0382C65.6047 47.0278 65.6156 47.0192 65.6253 47.0115C65.6449 46.9959 65.6563 46.988 65.6637 46.9835C65.669 46.9802 65.6714 46.9793 65.6723 46.9789C65.6737 46.9784 65.682 46.9752 65.7025 46.9713C69.2052 46.2939 73.3736 45.845 76.2586 46.4041L76.5343 46.4614L76.5446 46.4631ZM119.274 39.6449C120.728 39.7713 121.903 40.0674 122.259 40.706C122.504 41.1956 122.312 41.7292 121.917 42.2828C121.517 42.8433 120.924 43.4053 120.381 43.9543C119.039 45.3136 117.501 46.1902 115.135 46.951C112.878 47.6771 110.638 47.7822 108.385 47.8272L107.419 47.8443C105.373 47.8704 103.33 47.8895 101.29 47.9021L101.289 47.9025L99.1439 47.9229C98.9419 47.9248 98.5776 47.9364 98.2227 47.9319C98.047 47.9296 97.8838 47.9236 97.7567 47.9114C97.7039 47.9064 97.662 47.899 97.6281 47.8928L97.6303 47.8909C97.6627 47.8582 97.7196 47.816 97.7994 47.7668C97.9594 47.6684 98.16 47.5732 98.2956 47.5088C100.499 46.4621 103.401 45.4509 105.903 44.9406L106.677 44.7829L106.053 44.6415L106.048 44.6403C106.045 44.6396 106.04 44.6389 106.033 44.6376C106.021 44.6348 106.005 44.6304 105.984 44.6257C105.942 44.6161 105.885 44.6034 105.826 44.5901C105.816 44.5877 105.806 44.5851 105.796 44.5827C105.824 44.56 105.851 44.5381 105.877 44.5179C106.662 44.3045 107.45 44.0987 108.24 43.9022L108.241 43.9025C108.31 43.885 108.412 43.8599 108.532 43.8304C108.652 43.801 108.79 43.7676 108.925 43.7337C109.167 43.6732 109.428 43.605 109.582 43.5575C109.617 43.551 109.656 43.5447 109.689 43.5378C109.753 43.5246 109.83 43.5084 109.907 43.4917C110.068 43.4565 110.21 43.4245 110.269 43.4117L110.291 43.108C109.974 43.1391 109.723 43.1369 109.384 43.1402L109.38 43.1402C109.198 43.1434 108.905 43.1579 108.623 43.1531C108.484 43.1507 108.364 43.1438 108.277 43.1309C108.265 43.1292 108.257 43.1255 108.247 43.1238C108.264 43.1093 108.279 43.0965 108.293 43.0869C108.298 43.0853 108.304 43.0835 108.312 43.0813C108.353 43.069 108.415 43.0534 108.497 43.0342C108.662 42.996 108.887 42.9496 109.157 42.8982C109.695 42.7958 110.394 42.6758 111.111 42.5577C111.827 42.4396 112.558 42.3245 113.156 42.2317L114.409 42.041L114.422 42.0385C114.57 42.0127 114.725 41.9944 114.901 41.9717C115.07 41.95 115.256 41.9246 115.437 41.8856L115.485 41.58C115.101 41.5964 114.806 41.6073 114.443 41.6043L114.434 41.6047C111.537 41.6399 108.645 41.6661 105.758 41.6835L105.757 41.6832L86.4899 41.8446C85.4763 41.8532 84.2721 41.8418 83.219 41.9024L83.2068 41.9036C82.4175 41.9695 81.6935 42.0891 80.9342 42.3802L80.6067 42.5157C80.4938 42.5659 80.3725 42.6414 80.2683 42.7108C80.1583 42.7842 80.043 42.8678 79.9387 42.9436C79.8315 43.0215 79.7386 43.0891 79.6656 43.1395C79.6536 43.1478 79.6414 43.1549 79.6319 43.1612C76.5079 43.477 73.5696 43.7591 70.3298 44.657L70.3281 44.6575C69.4959 44.8912 68.683 45.171 67.9037 45.4918C67.7133 45.5699 67.4137 45.7213 67.1769 45.835C67.0503 45.8958 66.936 45.9488 66.8428 45.9872C66.8078 46.0017 66.7784 46.0121 66.7558 46.0201C66.7508 46.019 66.7447 46.0191 66.7401 46.0179C66.7248 46.014 66.716 46.0088 66.7093 46.0055C66.9277 45.7819 67.1781 45.5587 67.4368 45.3303C67.6962 45.1011 67.966 44.8655 68.2085 44.6292C69.838 43.041 71.666 41.5546 74.4653 40.6545C76.8649 39.8829 78.7677 39.8721 81.1253 39.8584L81.1263 39.8587L114.981 39.5763L114.98 39.5754C116.185 39.5662 117.827 39.5192 119.274 39.6449ZM88.6292 42.6297C88.5439 42.6679 88.4212 42.7097 88.2497 42.7503C88.1174 42.7816 87.977 42.8089 87.837 42.8346C87.703 42.8593 87.5579 42.8842 87.4412 42.9082C86.509 43.099 85.1702 43.3972 83.9466 43.5291C82.7233 43.6609 81.732 43.6132 81.3329 43.2011C81.3001 43.1094 81.2753 43.0006 81.2973 42.8985C81.3155 42.8138 81.3595 42.7545 81.4212 42.7122C81.5445 42.6994 81.7166 42.6907 81.9092 42.6857C82.1454 42.6796 82.3754 42.6795 82.5435 42.6772L84.4141 42.6511C84.6281 42.6483 84.9738 42.6403 85.3762 42.6313C85.7802 42.6223 86.2447 42.6125 86.7015 42.6064C87.159 42.6002 87.6061 42.5982 87.9755 42.6038C88.2604 42.6081 88.4839 42.6165 88.6292 42.6297Z" stroke="#A4A4A4" stroke-width="0.447683"/>
</g>
<g filter="url(#filter3_dddddddd_153_1052)">
<path d="M76.6959 43.4759C81.446 44.3554 80.029 47.7954 77.8922 50.5314C75.4842 53.6147 72.0089 56.3897 68.8993 59.3388L61.8238 65.9962L59.679 67.9936C59.353 68.2948 58.9098 68.7226 58.5623 69.0086C59.1351 68.9863 59.7146 68.996 60.2884 68.9888C61.7773 68.9691 63.2626 68.9562 64.7447 68.9499C66.1495 68.9385 67.5088 68.9432 68.9779 68.7425C71.2628 68.4302 73.7063 67.6445 75.4366 66.4865C76.5252 65.7579 77.2803 65.0295 78.1529 64.238L80.6796 61.9533L82.3545 60.4419C82.7442 60.0918 83.1633 59.7389 83.4971 59.3772C83.7722 59.0791 84.0326 58.7522 84.0665 58.4503C84.0902 58.2384 83.9769 58.0388 83.7243 57.9259C83.1529 57.6707 80.1052 57.653 79.1324 57.6421C78.6576 57.6366 77.5712 57.6876 77.2547 57.5442C77.2271 57.4843 77.3326 57.3581 77.4021 57.2924C77.9537 56.7715 78.5157 56.2507 79.0636 55.7292C79.2954 55.5087 79.5508 55.5106 79.8913 55.5076C81.6566 55.4925 83.4198 55.4838 85.1859 55.4676L102.383 55.3215C102.856 55.3161 106.029 55.2324 106.098 55.3976C105.929 55.68 104.941 56.5454 104.6 56.8714L99.9169 61.2893C99.4202 61.7224 98.7432 62.3658 98.2914 62.8079C97.3496 63.7296 96.3266 64.6431 95.3724 65.5509C93.3932 67.4507 91.4512 69.376 87.7932 70.3678C84.7907 71.1819 82.4695 71.2459 79.6389 71.2686L44.3024 71.5677C42.7327 71.5814 41.1482 71.6688 39.7746 71.4043C35.9882 70.6746 39.417 67.8998 41.2788 66.2131L52.1764 56.2282C55.2318 53.4113 58.3116 50.5965 61.3816 47.7826L63.9572 45.4349C64.4143 45.0174 64.8717 44.5876 65.3455 44.1747C65.4557 44.0863 65.5149 44.022 65.6961 43.987C69.3303 43.2842 73.731 42.8141 76.6959 43.4759Z" fill="#A4A4A4"/>
<path d="M114.354 38.9284C111.457 38.9636 108.564 38.9899 105.675 39.0072L86.4084 39.1689C85.3824 39.1776 84.1981 39.1663 83.1597 39.226C82.2887 39.2987 81.5361 39.4357 80.7254 39.7955C80.4238 39.9294 79.7868 40.4639 79.6935 40.4734C76.5233 40.7942 73.6015 41.0687 70.3777 41.9623C69.5646 42.1906 68.7705 42.4638 68.0092 42.7773C67.6626 42.9195 66.9237 43.329 66.6971 43.3523C66.5232 43.3379 66.3403 43.2746 66.4722 43.1383C66.9274 42.6706 67.5095 42.2108 67.9831 41.7492C69.618 40.1557 71.4949 38.619 74.3969 37.6858C76.8827 36.8865 78.8576 36.8789 81.2082 36.8653L115.062 36.583C117.443 36.5649 121.745 36.3871 122.522 37.7836C123.059 38.845 121.676 40.0816 120.61 41.1616C119.23 42.5592 117.635 43.4684 115.204 44.2501C112.537 45.1082 109.901 45.1237 107.341 45.1684C105.293 45.1945 103.249 45.2138 101.208 45.2264L99.0628 45.2471C98.6868 45.2507 97.5332 45.2931 97.3329 45.168C97.2762 44.985 97.902 44.6902 98.1661 44.5647C100.4 43.5034 103.342 42.4774 105.891 41.9576C105.891 41.9576 105.45 41.858 105.394 41.8423C105.494 41.7613 105.634 41.6426 105.739 41.5675C106.558 41.3439 107.381 41.1295 108.206 40.9243C108.491 40.8529 109.298 40.6608 109.549 40.5793C109.627 40.5693 110.14 40.4536 110.25 40.4297C109.907 40.4634 109.633 40.4611 109.303 40.4644C108.976 40.4702 108.032 40.5227 107.918 40.3723C107.943 40.3062 108.048 40.209 108.14 40.1529C108.461 39.957 113.666 39.1635 114.425 39.0527C114.75 38.9961 115.105 38.9713 115.42 38.9035C115.033 38.9199 114.73 38.9314 114.354 38.9284Z" fill="#A4A4A4"/>
<path d="M88.8947 39.6565C88.9838 39.6847 88.9849 39.7081 88.9779 39.7684C88.7049 40.0326 87.8932 40.1321 87.4539 40.2221C85.6174 40.5981 81.9702 41.4432 81.0669 40.4579C80.9921 40.2593 80.9373 39.9276 81.3485 39.7352C81.6631 39.686 82.3016 39.6882 82.6223 39.6837L84.4933 39.6584C85.3389 39.6473 88.2809 39.5501 88.8947 39.6565Z" fill="#A4A4A4"/>
<path d="M76.5446 43.6284C78.828 44.0512 79.6292 45.0843 79.6026 46.3547C79.5757 47.6337 78.7072 49.1504 77.6471 50.5077C75.2519 53.5746 71.8083 56.3207 68.6766 59.2909L61.6016 65.9476L59.4574 67.9445C59.1236 68.253 58.6929 68.6695 58.3542 68.9482L58.0678 69.1832L58.4942 69.1667C59.0605 69.1447 59.6166 69.1552 60.2088 69.1478L60.2096 69.1472C61.697 69.1275 63.1812 69.1147 64.6619 69.1084L64.6628 69.1087C66.0579 69.0974 67.4499 69.1024 68.9562 68.8966C71.2996 68.5763 73.8221 67.7688 75.6189 66.5662C76.7325 65.8209 77.5067 65.0737 78.3714 64.2894L80.8974 62.0052L82.572 60.4948C82.9526 60.153 83.3876 59.786 83.7314 59.4134C84.0095 59.112 84.3018 58.7524 84.3402 58.4105C84.3677 58.1642 84.237 57.927 83.9298 57.7897C83.748 57.7085 83.4054 57.6565 83.0264 57.619C82.6346 57.5803 82.1611 57.5528 81.6802 57.5338C81.1994 57.5148 80.7059 57.5038 80.2723 57.4966L79.2216 57.4834C79.097 57.482 78.9337 57.484 78.764 57.4857C78.5909 57.4875 78.4051 57.4888 78.2257 57.486C78.0458 57.4831 77.878 57.4762 77.7393 57.4623C77.6571 57.454 77.5945 57.4422 77.5461 57.4314C77.5683 57.3986 77.5998 57.3636 77.6238 57.3408C78.1721 56.8231 78.7393 56.2981 79.2867 55.777C79.3607 55.7067 79.4087 55.6939 79.4482 55.6859C79.5253 55.6703 79.622 55.6678 79.8095 55.6662L85.1047 55.6261L102.301 55.4798L102.302 55.4801C102.549 55.4773 103.448 55.4552 104.307 55.4542C104.736 55.4538 105.145 55.459 105.45 55.4737C105.58 55.4801 105.684 55.4883 105.76 55.4973C105.722 55.5427 105.671 55.5975 105.61 55.6607C105.492 55.7826 105.346 55.9249 105.192 56.07L104.376 56.8244L99.695 61.2411C99.1933 61.6792 98.5165 62.3217 98.066 62.7626C97.1231 63.6854 96.1145 64.5852 95.1494 65.5034L95.1486 65.5041C93.1541 67.4187 91.2745 69.2709 87.7488 70.2269C84.8155 71.0223 82.5484 71.0871 79.7211 71.1099L79.7202 71.1096L44.3843 71.4092L44.3833 71.4089C42.7852 71.4229 41.2586 71.5076 39.9286 71.2516C39.0275 71.078 38.5803 70.7887 38.4171 70.4398C38.2524 70.0875 38.367 69.6549 38.6638 69.1756C39.2626 68.2087 40.5516 67.1214 41.4972 66.2648L41.4979 66.2641L52.3961 56.2792L52.3968 56.2786L56.9933 52.0551C58.5287 50.6477 60.0658 49.2405 61.601 47.8334L64.1761 45.4865L64.1769 45.4858L64.8645 44.854C65.0939 44.6439 65.325 44.435 65.5603 44.2299L65.5601 44.229C65.5714 44.2198 65.5826 44.2113 65.592 44.2036C65.6047 44.1931 65.6156 44.1846 65.6253 44.1768C65.6449 44.1612 65.6563 44.1534 65.6637 44.1488C65.669 44.1455 65.6714 44.1446 65.6723 44.1443C65.6737 44.1438 65.682 44.1406 65.7025 44.1366C69.2052 43.4593 73.3736 43.0103 76.2586 43.5694L76.5343 43.6268L76.5446 43.6284ZM119.274 36.8103C120.728 36.9367 121.903 37.2328 122.259 37.8713C122.504 38.3609 122.312 38.8946 121.917 39.4482C121.517 40.0086 120.924 40.5707 120.381 41.1197C119.039 42.4789 117.501 43.3556 115.135 44.1164C112.878 44.8425 110.638 44.9476 108.385 44.9926L107.419 45.0097C105.373 45.0358 103.33 45.0549 101.29 45.0675L101.289 45.0679L99.1439 45.0883C98.9419 45.0902 98.5776 45.1017 98.2227 45.0972C98.047 45.095 97.8838 45.0889 97.7567 45.0768C97.7039 45.0717 97.662 45.0644 97.6281 45.0582L97.6303 45.0562C97.6627 45.0236 97.7196 44.9813 97.7994 44.9322C97.9594 44.8337 98.16 44.7385 98.2956 44.6741C100.499 43.6275 103.401 42.6162 105.903 42.106L106.677 41.9482L106.053 41.8068L106.048 41.8057C106.045 41.805 106.04 41.8043 106.033 41.8029C106.021 41.8002 106.005 41.7957 105.984 41.791C105.942 41.7814 105.885 41.7688 105.826 41.7554C105.816 41.7531 105.806 41.7504 105.796 41.7481C105.824 41.7253 105.851 41.7034 105.877 41.6833C106.662 41.4699 107.45 41.2641 108.24 41.0676L108.241 41.0678C108.31 41.0504 108.412 41.0252 108.532 40.9957C108.652 40.9664 108.79 40.933 108.925 40.8991C109.167 40.8386 109.428 40.7703 109.582 40.7228C109.617 40.7164 109.656 40.71 109.689 40.7032C109.753 40.69 109.83 40.6737 109.907 40.657C110.068 40.6218 110.21 40.5898 110.269 40.577L110.291 40.2734C109.974 40.3044 109.723 40.3022 109.384 40.3056L109.38 40.3055C109.198 40.3088 108.905 40.3232 108.623 40.3184C108.484 40.3161 108.364 40.3091 108.277 40.2963C108.265 40.2946 108.257 40.2909 108.247 40.2892C108.264 40.2746 108.279 40.2618 108.293 40.2522C108.298 40.2506 108.304 40.2488 108.312 40.2467C108.353 40.2343 108.415 40.2188 108.497 40.1995C108.662 40.1613 108.887 40.1149 109.157 40.0636C109.695 39.9612 110.394 39.8411 111.111 39.7231C111.827 39.605 112.558 39.4898 113.156 39.397L114.409 39.2063L114.422 39.2038C114.57 39.1781 114.725 39.1597 114.901 39.137C115.07 39.1153 115.256 39.0899 115.437 39.051L115.485 38.7454C115.101 38.7617 114.806 38.7726 114.443 38.7697L114.434 38.77C111.537 38.8052 108.645 38.8314 105.758 38.8488L105.757 38.8486L86.4899 39.01C85.4763 39.0185 84.2721 39.0072 83.219 39.0677L83.2068 39.0689C82.4175 39.1349 81.6935 39.2545 80.9342 39.5455L80.6067 39.6811C80.4938 39.7312 80.3725 39.8067 80.2683 39.8762C80.1583 39.9496 80.043 40.0331 79.9387 40.1089C79.8315 40.1868 79.7386 40.2545 79.6656 40.3049C79.6536 40.3132 79.6414 40.3202 79.6319 40.3265C76.5079 40.6423 73.5696 40.9244 70.3298 41.8224L70.3281 41.8228C69.4959 42.0565 68.683 42.3363 67.9037 42.6571C67.7133 42.7353 67.4137 42.8867 67.1769 43.0003C67.0503 43.0611 66.936 43.1142 66.8428 43.1526C66.8078 43.167 66.7784 43.1775 66.7558 43.1854C66.7508 43.1844 66.7447 43.1844 66.7401 43.1833C66.7248 43.1794 66.716 43.1741 66.7093 43.1709C66.9277 42.9473 67.1781 42.7241 67.4368 42.4956C67.6962 42.2665 67.966 42.0308 68.2085 41.7946C69.838 40.2063 71.666 38.72 74.4653 37.8199C76.8649 37.0482 78.7677 37.0374 81.1253 37.0238L81.1263 37.024L114.981 36.7416L114.98 36.7407C116.185 36.7316 117.827 36.6845 119.274 36.8103ZM88.6292 39.7951C88.5439 39.8332 88.4212 39.875 88.2497 39.9156C88.1174 39.947 87.977 39.9743 87.837 40C87.703 40.0246 87.5579 40.0496 87.4412 40.0735C86.509 40.2644 85.1702 40.5626 83.9466 40.6944C82.7233 40.8262 81.732 40.7786 81.3329 40.3665C81.3001 40.2748 81.2753 40.166 81.2973 40.0638C81.3155 39.9791 81.3595 39.9198 81.4212 39.8775C81.5445 39.8647 81.7166 39.856 81.9092 39.8511C82.1454 39.845 82.3754 39.8449 82.5435 39.8425L84.4141 39.8165C84.6281 39.8137 84.9738 39.8057 85.3762 39.7967C85.7802 39.7877 86.2447 39.7779 86.7015 39.7717C87.159 39.7655 87.6061 39.7636 87.9755 39.7691C88.2604 39.7735 88.4839 39.7818 88.6292 39.7951Z" stroke="#A4A4A4" stroke-width="0.447683"/>
</g>
<g filter="url(#filter4_dddddddd_153_1052)">
<path d="M76.6954 40.6412C81.4455 41.5208 80.0285 44.9607 77.8918 47.6967C75.4837 50.78 72.0084 53.555 68.8988 56.5042L61.8233 63.1615L59.6785 65.159C59.3525 65.4602 58.9093 65.888 58.5618 66.1739C59.1346 66.1517 59.7142 66.1613 60.288 66.1542C61.7768 66.1344 63.2621 66.1215 64.7442 66.1153C66.149 66.1039 67.5083 66.1086 68.9775 65.9078C71.2624 65.5955 73.7058 64.8098 75.4361 63.6518C76.5247 62.9233 77.2798 62.1949 78.1524 61.4033L80.6791 59.1187L82.354 57.6072C82.7437 57.2572 83.1629 56.9042 83.4966 56.5426C83.7717 56.2444 84.0321 55.9176 84.066 55.6156C84.0897 55.4037 83.9764 55.2041 83.7238 55.0913C83.1524 54.836 80.1048 54.8183 79.1319 54.8074C78.6571 54.8019 77.5707 54.853 77.2542 54.7096C77.2266 54.6496 77.3321 54.5235 77.4016 54.4578C77.9532 53.9369 78.5152 53.4161 79.0631 52.8946C79.2949 52.674 79.5503 52.676 79.8908 52.673C81.6561 52.6579 83.4193 52.6492 85.1855 52.633L102.382 52.4869C102.855 52.4815 106.029 52.3978 106.098 52.563C105.929 52.8453 104.941 53.7108 104.599 54.0367L99.9164 58.4546C99.4197 58.8878 98.7427 59.5311 98.2909 59.9732C97.3492 60.8949 96.3261 61.8084 95.3719 62.7162C93.3928 64.6161 91.4508 66.5413 87.7927 67.5332C84.7902 68.3473 82.469 68.4112 79.6385 68.434L44.302 68.733C42.7322 68.7468 41.1478 68.8341 39.7741 68.5697C35.9877 67.84 39.4165 65.0651 41.2783 63.3784L52.1759 53.3935C55.2313 50.5766 58.3111 47.7619 61.3811 44.948L63.9567 42.6003C64.4138 42.1827 64.8712 41.753 65.345 41.34C65.4552 41.2516 65.5144 41.1874 65.6956 41.1523C69.3298 40.4495 73.7305 39.9794 76.6954 40.6412Z" fill="#F9F5FF"/>
<path d="M114.354 36.0937C111.456 36.1289 108.563 36.1552 105.675 36.1726L86.4079 36.3343C85.3819 36.3429 84.1976 36.3316 83.1592 36.3913C82.2883 36.4641 81.5356 36.601 80.7249 36.9609C80.4233 37.0948 79.7863 37.6293 79.693 37.6387C76.5228 37.9596 73.601 38.2341 70.3772 39.1276C69.5641 39.3559 68.77 39.6292 68.0087 39.9426C67.6622 40.0849 66.9232 40.4944 66.6966 40.5177C66.5227 40.5032 66.3398 40.4399 66.4718 40.3036C66.9269 39.8359 67.509 39.3761 67.9826 38.9145C69.6175 37.3211 71.4944 35.7843 74.3964 34.8511C76.8822 34.0518 78.8571 34.0442 81.2077 34.0306L115.061 33.7484C117.442 33.7303 121.745 33.5524 122.522 34.9489C123.058 36.0103 121.676 37.247 120.609 38.327C119.229 39.7245 117.635 40.6337 115.204 41.4155C112.536 42.2736 109.901 42.2891 107.34 42.3337C105.293 42.3598 103.248 42.3792 101.207 42.3918L99.0624 42.4124C98.6863 42.4161 97.5327 42.4584 97.3324 42.3334C97.2757 42.1504 97.9015 41.8555 98.1656 41.7301C100.4 40.6688 103.341 39.6428 105.89 39.123C105.89 39.123 105.449 39.0234 105.394 39.0077C105.494 38.9266 105.634 38.808 105.738 38.7329C106.558 38.5093 107.38 38.2948 108.205 38.0896C108.491 38.0182 109.298 37.8261 109.548 37.7446C109.627 37.7346 110.14 37.619 110.25 37.5951C109.907 37.6287 109.633 37.6264 109.302 37.6297C108.976 37.6355 108.031 37.6881 107.918 37.5376C107.943 37.4715 108.047 37.3744 108.139 37.3183C108.461 37.1223 113.666 36.3289 114.425 36.218C114.749 36.1615 115.104 36.1367 115.419 36.0689C115.033 36.0853 114.729 36.0968 114.354 36.0937Z" fill="#F9F5FF"/>
<path d="M88.8942 36.8219C88.9833 36.8501 88.9844 36.8734 88.9775 36.9337C88.7045 37.198 87.8927 37.2975 87.4534 37.3874C85.6169 37.7635 81.9697 38.6085 81.0664 37.6233C80.9916 37.4246 80.9368 37.0929 81.348 36.9005C81.6626 36.8513 82.3011 36.8536 82.6218 36.849L84.4928 36.8238C85.3384 36.8126 88.2804 36.7155 88.8942 36.8219Z" fill="#F9F5FF"/>
</g>
<defs>
<filter id="filter0_i_153_1052" x="25.3091" y="22.075" width="110.297" height="66.3211" filterUnits="userSpaceOnUse" color-interpolation-filters="sRGB">
<feFlood flood-opacity="0" result="BackgroundImageFix"/>
<feBlend mode="normal" in="SourceGraphic" in2="BackgroundImageFix" result="shape"/>
<feColorMatrix in="SourceAlpha" type="matrix" values="0 0 0 0 0 0 0 0 0 0 0 0 0 0 0 0 0 0 127 0" result="hardAlpha"/>
<feOffset dy="8"/>
<feComposite in2="hardAlpha" operator="arithmetic" k2="-1" k3="1"/>
<feColorMatrix type="matrix" values="0 0 0 0 0.541176 0 0 0 0 0.219608 0 0 0 0 0.960784 0 0 0 1 0"/>
<feBlend mode="normal" in2="shape" result="effect1_innerShadow_153_1052"/>
</filter>
<filter id="filter1_dddddd_153_1052" x="26.0674" y="30.5899" width="108.574" height="59.0262" filterUnits="userSpaceOnUse" color-interpolation-filters="sRGB">
<feFlood flood-opacity="0" result="BackgroundImageFix"/>
<feColorMatrix in="SourceAlpha" type="matrix" values="0 0 0 0 0 0 0 0 0 0 0 0 0 0 0 0 0 0 127 0" result="hardAlpha"/>
<feOffset dy="0.354331"/>
<feGaussianBlur stdDeviation="6"/>
<feColorMatrix type="matrix" values="0 0 0 0 0.227451 0 0 0 0 0.0901961 0 0 0 0 0.462745 0 0 0 1 0"/>
<feBlend mode="normal" in2="BackgroundImageFix" result="effect1_dropShadow_153_1052"/>
<feColorMatrix in="SourceAlpha" type="matrix" values="0 0 0 0 0 0 0 0 0 0 0 0 0 0 0 0 0 0 127 0" result="hardAlpha"/>
<feOffset dy="0.708662"/>
<feColorMatrix type="matrix" values="0 0 0 0 0.541176 0 0 0 0 0.219608 0 0 0 0 0.960784 0 0 0 1 0"/>
<feBlend mode="normal" in2="effect1_dropShadow_153_1052" result="effect2_dropShadow_153_1052"/>
<feColorMatrix in="SourceAlpha" type="matrix" values="0 0 0 0 0 0 0 0 0 0 0 0 0 0 0 0 0 0 127 0" result="hardAlpha"/>
<feOffset dy="1.06299"/>
<feColorMatrix type="matrix" values="0 0 0 0 0.541176 0 0 0 0 0.219608 0 0 0 0 0.960784 0 0 0 1 0"/>
<feBlend mode="normal" in2="effect2_dropShadow_153_1052" result="effect3_dropShadow_153_1052"/>
<feColorMatrix in="SourceAlpha" type="matrix" values="0 0 0 0 0 0 0 0 0 0 0 0 0 0 0 0 0 0 127 0" result="hardAlpha"/>
<feOffset dy="1.41732"/>
<feColorMatrix type="matrix" values="0 0 0 0 0.541176 0 0 0 0 0.219608 0 0 0 0 0.960784 0 0 0 1 0"/>
<feBlend mode="normal" in2="effect3_dropShadow_153_1052" result="effect4_dropShadow_153_1052"/>
<feColorMatrix in="SourceAlpha" type="matrix" values="0 0 0 0 0 0 0 0 0 0 0 0 0 0 0 0 0 0 127 0" result="hardAlpha"/>
<feOffset dy="1.77166"/>
<feColorMatrix type="matrix" values="0 0 0 0 0.541176 0 0 0 0 0.219608 0 0 0 0 0.960784 0 0 0 1 0"/>
<feBlend mode="normal" in2="effect4_dropShadow_153_1052" result="effect5_dropShadow_153_1052"/>
<feColorMatrix in="SourceAlpha" type="matrix" values="0 0 0 0 0 0 0 0 0 0 0 0 0 0 0 0 0 0 127 0" result="hardAlpha"/>
<feOffset dy="2.12599"/>
<feColorMatrix type="matrix" values="0 0 0 0 0.541176 0 0 0 0 0.219608 0 0 0 0 0.960784 0 0 0 1 0"/>
<feBlend mode="normal" in2="effect5_dropShadow_153_1052" result="effect6_dropShadow_153_1052"/>
<feBlend mode="normal" in="SourceGraphic" in2="effect6_dropShadow_153_1052" result="shape"/>
</filter>
<filter id="filter2_dddddddd_153_1052" x="38.0674" y="39.4009" width="84.5742" height="37.8608" filterUnits="userSpaceOnUse" color-interpolation-filters="sRGB">
<feFlood flood-opacity="0" result="BackgroundImageFix"/>
<feColorMatrix in="SourceAlpha" type="matrix" values="0 0 0 0 0 0 0 0 0 0 0 0 0 0 0 0 0 0 127 0" result="hardAlpha"/>
<feOffset dy="0.354331"/>
<feColorMatrix type="matrix" values="0 0 0 0 0.541176 0 0 0 0 0.219608 0 0 0 0 0.960784 0 0 0 1 0"/>
<feBlend mode="normal" in2="BackgroundImageFix" result="effect1_dropShadow_153_1052"/>
<feColorMatrix in="SourceAlpha" type="matrix" values="0 0 0 0 0 0 0 0 0 0 0 0 0 0 0 0 0 0 127 0" result="hardAlpha"/>
<feOffset dy="0.708662"/>
<feColorMatrix type="matrix" values="0 0 0 0 0.541176 0 0 0 0 0.219608 0 0 0 0 0.960784 0 0 0 1 0"/>
<feBlend mode="normal" in2="effect1_dropShadow_153_1052" result="effect2_dropShadow_153_1052"/>
<feColorMatrix in="SourceAlpha" type="matrix" values="0 0 0 0 0 0 0 0 0 0 0 0 0 0 0 0 0 0 127 0" result="hardAlpha"/>
<feOffset dy="1.06299"/>
<feColorMatrix type="matrix" values="0 0 0 0 0.541176 0 0 0 0 0.219608 0 0 0 0 0.960784 0 0 0 1 0"/>
<feBlend mode="normal" in2="effect2_dropShadow_153_1052" result="effect3_dropShadow_153_1052"/>
<feColorMatrix in="SourceAlpha" type="matrix" values="0 0 0 0 0 0 0 0 0 0 0 0 0 0 0 0 0 0 127 0" result="hardAlpha"/>
<feOffset dy="1.41732"/>
<feColorMatrix type="matrix" values="0 0 0 0 0.541176 0 0 0 0 0.219608 0 0 0 0 0.960784 0 0 0 1 0"/>
<feBlend mode="normal" in2="effect3_dropShadow_153_1052" result="effect4_dropShadow_153_1052"/>
<feColorMatrix in="SourceAlpha" type="matrix" values="0 0 0 0 0 0 0 0 0 0 0 0 0 0 0 0 0 0 127 0" result="hardAlpha"/>
<feOffset dy="1.77166"/>
<feColorMatrix type="matrix" values="0 0 0 0 0.541176 0 0 0 0 0.219608 0 0 0 0 0.960784 0 0 0 1 0"/>
<feBlend mode="normal" in2="effect4_dropShadow_153_1052" result="effect5_dropShadow_153_1052"/>
<feColorMatrix in="SourceAlpha" type="matrix" values="0 0 0 0 0 0 0 0 0 0 0 0 0 0 0 0 0 0 127 0" result="hardAlpha"/>
<feOffset dy="2.12599"/>
<feColorMatrix type="matrix" values="0 0 0 0 0.541176 0 0 0 0 0.219608 0 0 0 0 0.960784 0 0 0 1 0"/>
<feBlend mode="normal" in2="effect5_dropShadow_153_1052" result="effect6_dropShadow_153_1052"/>
<feColorMatrix in="SourceAlpha" type="matrix" values="0 0 0 0 0 0 0 0 0 0 0 0 0 0 0 0 0 0 127 0" result="hardAlpha"/>
<feOffset dy="2.48032"/>
<feColorMatrix type="matrix" values="0 0 0 0 0.541176 0 0 0 0 0.219608 0 0 0 0 0.960784 0 0 0 1 0"/>
<feBlend mode="normal" in2="effect6_dropShadow_153_1052" result="effect7_dropShadow_153_1052"/>
<feColorMatrix in="SourceAlpha" type="matrix" values="0 0 0 0 0 0 0 0 0 0 0 0 0 0 0 0 0 0 127 0" result="hardAlpha"/>
<feOffset dy="2.83465"/>
<feColorMatrix type="matrix" values="0 0 0 0 0.541176 0 0 0 0 0.219608 0 0 0 0 0.960784 0 0 0 1 0"/>
<feBlend mode="normal" in2="effect7_dropShadow_153_1052" result="effect8_dropShadow_153_1052"/>
<feBlend mode="normal" in="SourceGraphic" in2="effect8_dropShadow_153_1052" result="shape"/>
</filter>
<filter id="filter3_dddddddd_153_1052" x="38.0674" y="36.5663" width="84.5742" height="37.8608" filterUnits="userSpaceOnUse" color-interpolation-filters="sRGB">
<feFlood flood-opacity="0" result="BackgroundImageFix"/>
<feColorMatrix in="SourceAlpha" type="matrix" values="0 0 0 0 0 0 0 0 0 0 0 0 0 0 0 0 0 0 127 0" result="hardAlpha"/>
<feOffset dy="0.354331"/>
<feColorMatrix type="matrix" values="0 0 0 0 0.541176 0 0 0 0 0.219608 0 0 0 0 0.960784 0 0 0 1 0"/>
<feBlend mode="normal" in2="BackgroundImageFix" result="effect1_dropShadow_153_1052"/>
<feColorMatrix in="SourceAlpha" type="matrix" values="0 0 0 0 0 0 0 0 0 0 0 0 0 0 0 0 0 0 127 0" result="hardAlpha"/>
<feOffset dy="0.708662"/>
<feColorMatrix type="matrix" values="0 0 0 0 0.541176 0 0 0 0 0.219608 0 0 0 0 0.960784 0 0 0 1 0"/>
<feBlend mode="normal" in2="effect1_dropShadow_153_1052" result="effect2_dropShadow_153_1052"/>
<feColorMatrix in="SourceAlpha" type="matrix" values="0 0 0 0 0 0 0 0 0 0 0 0 0 0 0 0 0 0 127 0" result="hardAlpha"/>
<feOffset dy="1.06299"/>
<feColorMatrix type="matrix" values="0 0 0 0 0.541176 0 0 0 0 0.219608 0 0 0 0 0.960784 0 0 0 1 0"/>
<feBlend mode="normal" in2="effect2_dropShadow_153_1052" result="effect3_dropShadow_153_1052"/>
<feColorMatrix in="SourceAlpha" type="matrix" values="0 0 0 0 0 0 0 0 0 0 0 0 0 0 0 0 0 0 127 0" result="hardAlpha"/>
<feOffset dy="1.41732"/>
<feColorMatrix type="matrix" values="0 0 0 0 0.541176 0 0 0 0 0.219608 0 0 0 0 0.960784 0 0 0 1 0"/>
<feBlend mode="normal" in2="effect3_dropShadow_153_1052" result="effect4_dropShadow_153_1052"/>
<feColorMatrix in="SourceAlpha" type="matrix" values="0 0 0 0 0 0 0 0 0 0 0 0 0 0 0 0 0 0 127 0" result="hardAlpha"/>
<feOffset dy="1.77166"/>
<feColorMatrix type="matrix" values="0 0 0 0 0.541176 0 0 0 0 0.219608 0 0 0 0 0.960784 0 0 0 1 0"/>
<feBlend mode="normal" in2="effect4_dropShadow_153_1052" result="effect5_dropShadow_153_1052"/>
<feColorMatrix in="SourceAlpha" type="matrix" values="0 0 0 0 0 0 0 0 0 0 0 0 0 0 0 0 0 0 127 0" result="hardAlpha"/>
<feOffset dy="2.12599"/>
<feColorMatrix type="matrix" values="0 0 0 0 0.541176 0 0 0 0 0.219608 0 0 0 0 0.960784 0 0 0 1 0"/>
<feBlend mode="normal" in2="effect5_dropShadow_153_1052" result="effect6_dropShadow_153_1052"/>
<feColorMatrix in="SourceAlpha" type="matrix" values="0 0 0 0 0 0 0 0 0 0 0 0 0 0 0 0 0 0 127 0" result="hardAlpha"/>
<feOffset dy="2.48032"/>
<feColorMatrix type="matrix" values="0 0 0 0 0.541176 0 0 0 0 0.219608 0 0 0 0 0.960784 0 0 0 1 0"/>
<feBlend mode="normal" in2="effect6_dropShadow_153_1052" result="effect7_dropShadow_153_1052"/>
<feColorMatrix in="SourceAlpha" type="matrix" values="0 0 0 0 0 0 0 0 0 0 0 0 0 0 0 0 0 0 127 0" result="hardAlpha"/>
<feOffset dy="2.83465"/>
<feColorMatrix type="matrix" values="0 0 0 0 0.541176 0 0 0 0 0.219608 0 0 0 0 0.960784 0 0 0 1 0"/>
<feBlend mode="normal" in2="effect7_dropShadow_153_1052" result="effect8_dropShadow_153_1052"/>
<feBlend mode="normal" in="SourceGraphic" in2="effect8_dropShadow_153_1052" result="shape"/>
</filter>
<filter id="filter4_dddddddd_153_1052" x="38.0669" y="33.7316" width="84.5742" height="37.8608" filterUnits="userSpaceOnUse" color-interpolation-filters="sRGB">
<feFlood flood-opacity="0" result="BackgroundImageFix"/>
<feColorMatrix in="SourceAlpha" type="matrix" values="0 0 0 0 0 0 0 0 0 0 0 0 0 0 0 0 0 0 127 0" result="hardAlpha"/>
<feOffset dy="0.354331"/>
<feColorMatrix type="matrix" values="0 0 0 0 0.541176 0 0 0 0 0.219608 0 0 0 0 0.960784 0 0 0 1 0"/>
<feBlend mode="normal" in2="BackgroundImageFix" result="effect1_dropShadow_153_1052"/>
<feColorMatrix in="SourceAlpha" type="matrix" values="0 0 0 0 0 0 0 0 0 0 0 0 0 0 0 0 0 0 127 0" result="hardAlpha"/>
<feOffset dy="0.708662"/>
<feColorMatrix type="matrix" values="0 0 0 0 0.541176 0 0 0 0 0.219608 0 0 0 0 0.960784 0 0 0 1 0"/>
<feBlend mode="normal" in2="effect1_dropShadow_153_1052" result="effect2_dropShadow_153_1052"/>
<feColorMatrix in="SourceAlpha" type="matrix" values="0 0 0 0 0 0 0 0 0 0 0 0 0 0 0 0 0 0 127 0" result="hardAlpha"/>
<feOffset dy="1.06299"/>
<feColorMatrix type="matrix" values="0 0 0 0 0.541176 0 0 0 0 0.219608 0 0 0 0 0.960784 0 0 0 1 0"/>
<feBlend mode="normal" in2="effect2_dropShadow_153_1052" result="effect3_dropShadow_153_1052"/>
<feColorMatrix in="SourceAlpha" type="matrix" values="0 0 0 0 0 0 0 0 0 0 0 0 0 0 0 0 0 0 127 0" result="hardAlpha"/>
<feOffset dy="1.41732"/>
<feColorMatrix type="matrix" values="0 0 0 0 0.541176 0 0 0 0 0.219608 0 0 0 0 0.960784 0 0 0 1 0"/>
<feBlend mode="normal" in2="effect3_dropShadow_153_1052" result="effect4_dropShadow_153_1052"/>
<feColorMatrix in="SourceAlpha" type="matrix" values="0 0 0 0 0 0 0 0 0 0 0 0 0 0 0 0 0 0 127 0" result="hardAlpha"/>
<feOffset dy="1.77166"/>
<feColorMatrix type="matrix" values="0 0 0 0 0.541176 0 0 0 0 0.219608 0 0 0 0 0.960784 0 0 0 1 0"/>
<feBlend mode="normal" in2="effect4_dropShadow_153_1052" result="effect5_dropShadow_153_1052"/>
<feColorMatrix in="SourceAlpha" type="matrix" values="0 0 0 0 0 0 0 0 0 0 0 0 0 0 0 0 0 0 127 0" result="hardAlpha"/>
<feOffset dy="2.12599"/>
<feColorMatrix type="matrix" values="0 0 0 0 0.541176 0 0 0 0 0.219608 0 0 0 0 0.960784 0 0 0 1 0"/>
<feBlend mode="normal" in2="effect5_dropShadow_153_1052" result="effect6_dropShadow_153_1052"/>
<feColorMatrix in="SourceAlpha" type="matrix" values="0 0 0 0 0 0 0 0 0 0 0 0 0 0 0 0 0 0 127 0" result="hardAlpha"/>
<feOffset dy="2.48032"/>
<feColorMatrix type="matrix" values="0 0 0 0 0.541176 0 0 0 0 0.219608 0 0 0 0 0.960784 0 0 0 1 0"/>
<feBlend mode="normal" in2="effect6_dropShadow_153_1052" result="effect7_dropShadow_153_1052"/>
<feColorMatrix in="SourceAlpha" type="matrix" values="0 0 0 0 0 0 0 0 0 0 0 0 0 0 0 0 0 0 127 0" result="hardAlpha"/>
<feOffset dy="2.83465"/>
<feColorMatrix type="matrix" values="0 0 0 0 0.541176 0 0 0 0 0.219608 0 0 0 0 0.960784 0 0 0 1 0"/>
<feBlend mode="normal" in2="effect7_dropShadow_153_1052" result="effect8_dropShadow_153_1052"/>
<feBlend mode="normal" in="SourceGraphic" in2="effect8_dropShadow_153_1052" result="shape"/>
</filter>
</defs>
</svg>
