<svg width="159" height="117" viewBox="0 0 159 117" fill="none" xmlns="http://www.w3.org/2000/svg">
<path d="M70.0882 15.1282C108.797 6.77344 144.178 18.5407 149.114 41.4113C149.253 42.0524 149.364 42.6959 149.452 43.3403C151.381 53.0795 152.802 66.4265 153.016 70.2849C147.159 100.668 101.767 117.141 62.232 116.409C30.6039 115.824 16.8398 101.034 13.9112 93.7131L9.67857 74.3659C9.38417 73.4845 9.13667 72.5847 8.93857 71.6669C4.00219 48.7961 31.3797 23.483 70.0882 15.1282Z" fill="#F9F5FF" stroke="#C4A9FF"/>
<mask id="mask0_153_1009" style="mask-type:alpha" maskUnits="userSpaceOnUse" x="7" y="11" width="147" height="106">
<path d="M70.0883 15.1279C108.797 6.77324 144.178 18.541 149.114 41.4118C149.252 42.0508 149.363 42.692 149.451 43.3344C151.381 53.0738 152.802 66.4251 153.016 70.2846C147.159 100.668 101.767 117.142 62.2315 116.41C30.6035 115.824 16.8392 101.035 13.9107 93.7136L9.67801 74.3642C9.38385 73.4833 9.13598 72.5839 8.93801 71.6666C4.00193 48.7959 31.38 23.4826 70.0883 15.1279Z" fill="#FEE142" stroke="#C4A9FF"/>
</mask>
<g mask="url(#mask0_153_1009)">
<path d="M62.9632 100.302L66.6239 116.409C36.5 119.5 19.8452 103.809 13.5 96L8.05322 72.4813L62.9632 100.302Z" fill="#F9F5FF" stroke="#C4A9FF"/>
<path d="M120.802 84.9276L126.659 101.767L135.5 99L150 84.9276L154 70L151.5 45L135.5 26.5L111 24.5L120.802 84.9276Z" fill="#F9F5FF" stroke="#C4A9FF"/>
</g>
<path d="M70.0883 15.1279C108.797 6.77324 144.178 18.541 149.114 41.4118C149.252 42.0508 149.363 42.692 149.451 43.3344C151.381 53.0738 152.802 66.4251 153.016 70.2846C147.159 100.668 101.767 117.142 62.2315 116.41C30.6035 115.824 16.8392 101.035 13.9107 93.7136L9.67801 74.3642C9.38385 73.4833 9.13598 72.5839 8.93801 71.6666C4.00193 48.7959 31.38 23.4826 70.0883 15.1279Z" stroke="#C4A9FF"/>
<ellipse cx="79.026" cy="56.5389" rx="71.7019" ry="42.3648" transform="rotate(-12.1798 79.026 56.5389)" fill="#F9F5FF" stroke="#C4A9FF"/>
<mask id="mask1_153_1009" style="mask-type:alpha" maskUnits="userSpaceOnUse" x="7" y="11" width="144" height="91">
<ellipse cx="79.026" cy="56.5389" rx="71.7019" ry="42.3648" transform="rotate(-12.1798 79.026 56.5389)" fill="#FFD042" stroke="#C4A9FF"/>
</mask>
<g mask="url(#mask1_153_1009)">
<path d="M96.2755 24.5265V7.68739C72.2371 10.86 41.1355 24.2336 38.4998 24.5265C35.2052 24.8925 10.3303 48.0714 8.5 51C7.03573 53.3428 2.49986 79.5 15.5001 90C35.8778 98.2975 53.1212 106.036 53.9998 107.5C54.8784 108.964 99.326 101.4 123.364 91.8827L96.2755 24.5265Z" fill="#F9F5FF" stroke="#C4A9FF"/>
<ellipse cx="79.026" cy="56.5389" rx="71.7019" ry="42.3648" transform="rotate(-12.1798 79.026 56.5389)" stroke="#C4A9FF"/>
<g filter="url(#filter0_i_153_1009)">
<ellipse cx="80.4576" cy="55.2356" rx="55.9968" ry="31.6883" transform="rotate(-12.1798 80.4576 55.2356)" fill="#F9F5FF"/>
</g>
<ellipse cx="80.4576" cy="55.2356" rx="55.9968" ry="31.6883" transform="rotate(-12.1798 80.4576 55.2356)" stroke="#C4A9FF"/>
</g>
<path d="M79.5 52.5001V48.5001L81 47.5001C80.6667 47.8334 80.4 48.5001 82 48.5001C83.6 48.5001 87.3333 47.8334 89 47.5001L88.5 47.0001H97.5V52.5001H108.5C112.5 52.6668 120.9 51.5001 122.5 45.5001V35.5001" stroke="#B69FFB"/>
<path d="M70.5 65.5001L77 59.0001" stroke="#B69FFB"/>
<path d="M77.5 54.5001V62.0001" stroke="#C4A9FF"/>
<path d="M38 67.5001V78.0001C38 78.5001 38.6 79.5001 41 79.5001C43.4 79.5001 69.3333 79.5001 82 79.5001C84.6667 79.5001 90.8 78.6001 94 75.0001L106 63.0001V52.5001" stroke="#B69FFB"/>
<path d="M97.5 42.5001V52.5001" stroke="#C4A9FF"/>
<path d="M76.6954 40.6413C81.4455 41.5209 80.0285 44.9608 77.8918 47.6968C75.4837 50.7801 72.0084 53.5551 68.8988 56.5042L61.8233 63.1616L59.6785 65.159C59.3525 65.4603 58.9093 65.888 58.5618 66.174C59.1346 66.1518 59.7142 66.1614 60.288 66.1542C61.7768 66.1345 63.2621 66.1216 64.7442 66.1153C66.149 66.1039 67.5083 66.1086 68.9775 65.9079C71.2624 65.5956 73.7058 64.8099 75.4361 63.6519C76.5247 62.9233 77.2798 62.1949 78.1524 61.4034L80.6791 59.1187L82.354 57.6073C82.7437 57.2572 83.1629 56.9043 83.4966 56.5426C83.7717 56.2445 84.0321 55.9176 84.066 55.6157C84.0897 55.4038 83.9764 55.2042 83.7238 55.0913C83.1524 54.8361 80.1048 54.8184 79.1319 54.8075C78.6571 54.802 77.5707 54.853 77.2542 54.7096C77.2266 54.6497 77.3321 54.5235 77.4016 54.4578C77.9532 53.9369 78.5152 53.4161 79.0631 52.8946C79.2949 52.6741 79.5503 52.676 79.8908 52.673C81.6561 52.6579 83.4193 52.6492 85.1855 52.633L102.382 52.4869C102.855 52.4815 106.029 52.3978 106.098 52.563C105.929 52.8454 104.941 53.7108 104.599 54.0368L99.9164 58.4547C99.4197 58.8878 98.7427 59.5312 98.2909 59.9733C97.3492 60.895 96.3261 61.8085 95.3719 62.7163C93.3928 64.6161 91.4508 66.5414 87.7927 67.5332C84.7902 68.3474 82.469 68.4113 79.6385 68.434L44.302 68.7331C42.7322 68.7468 41.1478 68.8342 39.7741 68.5697C35.9877 67.84 39.4165 65.0652 41.2783 63.3785L52.1759 53.3936C55.2313 50.5767 58.3111 47.7619 61.3811 44.948L63.9567 42.6003C64.4138 42.1828 64.8712 41.753 65.345 41.3401C65.4552 41.2517 65.5144 41.1874 65.6956 41.1524C69.3298 40.4496 73.7305 39.9795 76.6954 40.6413Z" fill="#F9F5FF"/>
<path d="M114.354 36.0938C111.456 36.129 108.563 36.1553 105.675 36.1726L86.4079 36.3343C85.3819 36.343 84.1976 36.3317 83.1592 36.3914C82.2883 36.4641 81.5356 36.6011 80.7249 36.9609C80.4233 37.0948 79.7863 37.6293 79.693 37.6388C76.5228 37.9596 73.601 38.2341 70.3772 39.1277C69.5641 39.356 68.77 39.6292 68.0087 39.9427C67.6622 40.0849 66.9232 40.4944 66.6966 40.5177C66.5227 40.5033 66.3398 40.44 66.4718 40.3037C66.9269 39.836 67.509 39.3762 67.9826 38.9146C69.6175 37.3211 71.4944 35.7844 74.3964 34.8512C76.8822 34.0519 78.8571 34.0443 81.2077 34.0307L115.061 33.7484C117.442 33.7303 121.745 33.5525 122.522 34.949C123.058 36.0104 121.676 37.247 120.609 38.3271C119.229 39.7246 117.635 40.6338 115.204 41.4155C112.536 42.2736 109.901 42.2892 107.34 42.3338C105.293 42.3599 103.248 42.3792 101.207 42.3918L99.0624 42.4125C98.6863 42.4161 97.5327 42.4585 97.3324 42.3334C97.2757 42.1504 97.9015 41.8556 98.1656 41.7301C100.4 40.6688 103.341 39.6428 105.89 39.123C105.89 39.123 105.449 39.0234 105.394 39.0078C105.494 38.9267 105.634 38.8081 105.738 38.733C106.558 38.5094 107.38 38.2949 108.205 38.0897C108.491 38.0183 109.298 37.8262 109.548 37.7447C109.627 37.7347 110.14 37.619 110.25 37.5952C109.907 37.6288 109.633 37.6265 109.302 37.6298C108.976 37.6356 108.031 37.6881 107.918 37.5377C107.943 37.4716 108.047 37.3744 108.139 37.3183C108.461 37.1224 113.666 36.3289 114.425 36.2181C114.749 36.1615 115.104 36.1367 115.419 36.0689C115.033 36.0853 114.729 36.0968 114.354 36.0938Z" fill="#F9F5FF"/>
<path d="M88.8942 36.822C88.9833 36.8501 88.9844 36.8735 88.9775 36.9338C88.7045 37.198 87.8927 37.2976 87.4534 37.3875C85.6169 37.7635 81.9697 38.6086 81.0664 37.6233C80.9916 37.4247 80.9368 37.093 81.348 36.9006C81.6626 36.8514 82.3011 36.8536 82.6218 36.8491L84.4928 36.8238C85.3384 36.8127 88.2804 36.7155 88.8942 36.822Z" fill="#F9F5FF"/>
<path d="M76.6954 40.6413C81.4455 41.5209 80.0285 44.9608 77.8918 47.6968C75.4837 50.7801 72.0084 53.5551 68.8988 56.5042L61.8233 63.1616L59.6785 65.159C59.3525 65.4603 58.9093 65.888 58.5618 66.174C59.1346 66.1518 59.7142 66.1614 60.288 66.1542C61.7768 66.1345 63.2621 66.1216 64.7442 66.1153C66.149 66.1039 67.5083 66.1086 68.9775 65.9079C71.2624 65.5956 73.7058 64.8099 75.4361 63.6519C76.5247 62.9233 77.2798 62.1949 78.1524 61.4034L80.6791 59.1187L82.354 57.6073C82.7437 57.2572 83.1629 56.9043 83.4966 56.5426C83.7717 56.2445 84.0321 55.9176 84.066 55.6157C84.0897 55.4038 83.9764 55.2042 83.7238 55.0913C83.1524 54.8361 80.1048 54.8184 79.1319 54.8075C78.6571 54.802 77.5707 54.853 77.2542 54.7096C77.2266 54.6497 77.3321 54.5235 77.4016 54.4578C77.9532 53.9369 78.5152 53.4161 79.0631 52.8946C79.2949 52.6741 79.5503 52.676 79.8908 52.673C81.6561 52.6579 83.4193 52.6492 85.1855 52.633L102.382 52.4869C102.855 52.4815 106.029 52.3978 106.098 52.563C105.929 52.8454 104.941 53.7108 104.599 54.0368L99.9164 58.4547C99.4197 58.8878 98.7427 59.5312 98.2909 59.9733C97.3492 60.895 96.3261 61.8085 95.3719 62.7163C93.3928 64.6161 91.4508 66.5414 87.7927 67.5332C84.7902 68.3474 82.469 68.4113 79.6385 68.434L44.302 68.7331C42.7322 68.7468 41.1478 68.8342 39.7741 68.5697C35.9877 67.84 39.4165 65.0652 41.2783 63.3785L52.1759 53.3936C55.2313 50.5767 58.3111 47.7619 61.3811 44.948L63.9567 42.6003C64.4138 42.1828 64.8712 41.753 65.345 41.3401C65.4552 41.2517 65.5144 41.1874 65.6956 41.1524C69.3298 40.4496 73.7305 39.9795 76.6954 40.6413Z" stroke="#C4A9FF"/>
<path d="M114.354 36.0938C111.456 36.129 108.563 36.1553 105.675 36.1726L86.4079 36.3343C85.3819 36.343 84.1976 36.3317 83.1592 36.3914C82.2883 36.4641 81.5356 36.6011 80.7249 36.9609C80.4233 37.0948 79.7863 37.6293 79.693 37.6388C76.5228 37.9596 73.601 38.2341 70.3772 39.1277C69.5641 39.356 68.77 39.6292 68.0087 39.9427C67.6622 40.0849 66.9232 40.4944 66.6966 40.5177C66.5227 40.5033 66.3398 40.44 66.4718 40.3037C66.9269 39.836 67.509 39.3762 67.9826 38.9146C69.6175 37.3211 71.4944 35.7844 74.3964 34.8512C76.8822 34.0519 78.8571 34.0443 81.2077 34.0307L115.061 33.7484C117.442 33.7303 121.745 33.5525 122.522 34.949C123.058 36.0104 121.676 37.247 120.609 38.3271C119.229 39.7246 117.635 40.6338 115.204 41.4155C112.536 42.2736 109.901 42.2892 107.34 42.3338C105.293 42.3599 103.248 42.3792 101.207 42.3918L99.0624 42.4125C98.6863 42.4161 97.5327 42.4585 97.3324 42.3334C97.2757 42.1504 97.9015 41.8556 98.1656 41.7301C100.4 40.6688 103.341 39.6428 105.89 39.123C105.89 39.123 105.449 39.0234 105.394 39.0078C105.494 38.9267 105.634 38.8081 105.738 38.733C106.558 38.5094 107.38 38.2949 108.205 38.0897C108.491 38.0183 109.298 37.8262 109.548 37.7447C109.627 37.7347 110.14 37.619 110.25 37.5952C109.907 37.6288 109.633 37.6265 109.302 37.6298C108.976 37.6356 108.031 37.6881 107.918 37.5377C107.943 37.4716 108.047 37.3744 108.139 37.3183C108.461 37.1224 113.666 36.3289 114.425 36.2181C114.749 36.1615 115.104 36.1367 115.419 36.0689C115.033 36.0853 114.729 36.0968 114.354 36.0938Z" stroke="#C4A9FF"/>
<path d="M88.8942 36.822C88.9833 36.8501 88.9844 36.8735 88.9775 36.9338C88.7045 37.198 87.8927 37.2976 87.4534 37.3875C85.6169 37.7635 81.9697 38.6086 81.0664 37.6233C80.9916 37.4247 80.9368 37.093 81.348 36.9006C81.6626 36.8514 82.3011 36.8536 82.6218 36.8491L84.4928 36.8238C85.3384 36.8127 88.2804 36.7155 88.8942 36.822Z" stroke="#C4A9FF"/>
<defs>
<filter id="filter0_i_153_1009" x="24.8081" y="21.575" width="111.299" height="67.3211" filterUnits="userSpaceOnUse" color-interpolation-filters="sRGB">
<feFlood flood-opacity="0" result="BackgroundImageFix"/>
<feBlend mode="normal" in="SourceGraphic" in2="BackgroundImageFix" result="shape"/>
<feColorMatrix in="SourceAlpha" type="matrix" values="0 0 0 0 0 0 0 0 0 0 0 0 0 0 0 0 0 0 127 0" result="hardAlpha"/>
<feOffset dy="8"/>
<feComposite in2="hardAlpha" operator="arithmetic" k2="-1" k3="1"/>
<feColorMatrix type="matrix" values="0 0 0 0 0.768627 0 0 0 0 0.662745 0 0 0 0 1 0 0 0 1 0"/>
<feBlend mode="normal" in2="shape" result="effect1_innerShadow_153_1009"/>
</filter>
</defs>
</svg>
