<svg width="366" height="326" viewBox="0 0 366 326" fill="none" xmlns="http://www.w3.org/2000/svg" xmlns:xlink="http://www.w3.org/1999/xlink">
<g filter="url(#filter0_i_53_203)">
<rect x="0.5" y="0.5" width="365" height="325" rx="8" fill="url(#pattern0_53_203)"/>
<rect x="0.5" y="0.5" width="365" height="325" rx="8" stroke="#C4A9FF"/>
<g clip-path="url(#clip0_53_203)">
<g clip-path="url(#clip1_53_203)">
<path d="M128.353 115.366C147.572 114.073 155.644 132.464 158.675 148.275C162.09 166.094 160.775 183.665 161.336 201.654L162.415 242.328L162.665 254.557C162.694 256.404 162.802 259.004 162.702 260.802C164.542 260.023 166.522 259.39 168.421 258.682C173.344 256.84 178.28 255.035 183.23 253.267C187.902 251.564 192.481 249.992 196.663 247.293C203.166 243.095 208.436 236.408 209.924 228.747C210.861 223.928 210.679 219.5 210.656 214.627L210.616 200.553L210.601 191.238C210.604 189.079 210.694 186.871 210.466 184.721C210.278 182.948 209.932 181.053 208.921 179.545C208.21 178.487 207.085 177.649 205.817 177.396C202.948 176.825 192.655 180.313 189.349 181.401C187.736 181.931 184.28 183.454 182.683 183.127C182.367 182.868 182.251 182.131 182.239 181.73C182.148 178.55 182.092 175.358 181.986 172.179C181.942 170.835 182.806 170.545 183.937 170.131C189.805 167.987 195.689 165.877 201.556 163.727L245.006 147.851L258.719 142.849C260.287 142.268 270.623 138.139 271.472 138.861C271.957 140.433 271.869 145.8 271.939 147.786L272.696 174.763C272.644 177.452 272.772 181.374 272.904 184.054C273.18 189.641 273.153 195.283 273.336 200.817C273.778 212.378 274.44 224.018 265.863 233.131C258.823 240.612 251.271 243.645 241.857 247.075L230.057 251.383L191.591 265.435L141.007 283.899L124.392 289.971C119.175 291.879 114.184 294.162 108.588 294.487C93.161 295.379 94.3208 277.863 94.2796 267.477L94.1173 253.363L93.6193 206.138C93.3695 188.856 93.2094 171.556 93.0195 154.271L92.9088 139.833C92.8861 137.266 92.8185 134.64 92.8688 132.076C92.909 131.517 92.868 131.135 93.3455 130.752C102.921 123.072 115.936 115.625 128.353 115.366Z" fill="#221139"/>
<path d="M237.769 49.0863C228.177 52.6556 218.567 56.1763 208.939 59.6481L164.593 75.8333L144.887 83.0302C141.476 84.2755 137.459 85.6095 134.197 87.1175C131.546 88.4928 129.531 90.0414 128.152 92.7424C127.639 93.7472 127.495 97.0936 127.216 97.2491C117.774 102.527 108.993 107.289 101.506 115.415C99.6292 117.479 97.9831 119.739 96.597 122.156C95.9646 123.254 95.012 126.113 94.3383 126.492C93.7006 126.625 92.8509 126.532 92.7856 125.714C92.569 122.906 92.8081 119.987 92.6763 117.187C92.2212 107.521 92.7894 97.8458 99.0486 89.9041C104.41 83.1017 111.009 80.7488 118.846 77.9259L128.947 74.2438L164.553 61.2589L215.609 42.6129L231.398 36.8508C239.321 33.9701 253.095 28.0597 260.911 33.9395C266.668 38.4722 266.641 46.1074 267.088 52.6106C267.668 61.0254 265.707 67.3174 260.465 73.9697C254.712 81.2716 245.927 84.4374 237.5 87.6577C230.726 90.186 223.938 92.6776 217.136 95.1325L210.015 97.7486C208.767 98.2071 205.053 99.7659 203.915 99.3929C203.042 98.5693 204.043 96.4015 204.461 95.4817C208.001 87.7004 214.047 79.261 220.662 73.7438C220.658 73.742 218.812 73.7764 218.566 73.7657C218.6 73.2538 218.628 72.5127 218.698 72.0248C220.615 69.9762 222.576 67.9686 224.579 66.0033C225.27 65.3213 227.262 63.4407 227.798 62.7509C228.024 62.6101 229.315 61.4459 229.595 61.2008C228.57 61.7662 227.641 62.0767 226.544 62.4805C225.471 62.8912 222.498 64.2545 221.556 63.6558C221.392 63.3055 221.38 62.7104 221.48 62.3296C221.83 60.9993 236.338 51.0364 238.47 49.6076C239.349 48.952 240.447 48.4151 241.252 47.7159C240.017 48.2487 239.04 48.6608 237.769 49.0863Z" fill="#221139"/>
<path d="M155.048 82.4857C155.452 82.5183 155.543 82.6305 155.744 82.9318C155.814 84.5372 153.461 85.9731 152.322 86.9257C147.561 90.9083 138.473 99.2952 131.768 95.5632C130.776 94.6848 129.355 93.1359 130.018 91.7181C130.89 91.1097 133.041 90.3719 134.101 89.9737L140.285 87.6567C143.081 86.6107 152.591 82.6879 155.048 82.4857Z" fill="#221139"/>
</g>
</g>
</g>
<defs>
<filter id="filter0_i_53_203" x="0" y="0" width="368" height="330" filterUnits="userSpaceOnUse" color-interpolation-filters="sRGB">
<feFlood flood-opacity="0" result="BackgroundImageFix"/>
<feBlend mode="normal" in="SourceGraphic" in2="BackgroundImageFix" result="shape"/>
<feColorMatrix in="SourceAlpha" type="matrix" values="0 0 0 0 0 0 0 0 0 0 0 0 0 0 0 0 0 0 127 0" result="hardAlpha"/>
<feOffset dx="2" dy="4"/>
<feGaussianBlur stdDeviation="9"/>
<feComposite in2="hardAlpha" operator="arithmetic" k2="-1" k3="1"/>
<feColorMatrix type="matrix" values="0 0 0 0 0.768627 0 0 0 0 0.662745 0 0 0 0 1 0 0 0 0.64 0"/>
<feBlend mode="normal" in2="shape" result="effect1_innerShadow_53_203"/>
</filter>
<clipPath id="clip0_53_203">
<rect width="264" height="264" fill="white" transform="translate(51 31)"/>
</clipPath>
<clipPath id="clip1_53_203">
<rect width="182" height="264" fill="white" transform="translate(92 31)"/>
</clipPath>
<pattern id="pattern0_53_203" patternUnits="userSpaceOnUse" patternTransform="matrix(40.88 0 0 40.88 0.22 0.22)" preserveAspectRatio="none" viewBox="-0.5 -0.5 73 73" width="1" height="1">
<use xlink:href="#pattern0_53_203_inner" transform="translate(-73 -73)"/>
<use xlink:href="#pattern0_53_203_inner" transform="translate(0 -73)"/>
<use xlink:href="#pattern0_53_203_inner" transform="translate(-73 0)"/>
<g id="pattern0_53_203_inner">
<rect width="73" height="73" stroke="#C4A9FF"/>
</g>
</pattern></defs>
</svg>
